<?xml version="1.0" encoding="UTF-8" standalone="no"?>
<!-- Created with Inkscape (http://www.inkscape.org/) -->

<svg
   width="32"
   height="32"
   viewBox="0 0 8.4666662 8.4666662"
   version="1.1"
   id="svg1"
   xmlns:inkscape="http://www.inkscape.org/namespaces/inkscape"
   xmlns:sodipodi="http://sodipodi.sourceforge.net/DTD/sodipodi-0.dtd"
   xmlns="http://www.w3.org/2000/svg"
   xmlns:svg="http://www.w3.org/2000/svg">
  <sodipodi:namedview
     id="namedview1"
     pagecolor="#ffffff"
     bordercolor="#000000"
     borderopacity="0.25"
     inkscape:showpageshadow="2"
     inkscape:pageopacity="0.0"
     inkscape:pagecheckerboard="0"
     inkscape:deskcolor="#d1d1d1"
     inkscape:document-units="mm" />
  <defs
     id="defs1" />
  <g
     inkscape:label="Layer 1"
     inkscape:groupmode="layer"
     id="layer1">
    <path
       style="fill:#000000;stroke:#000000;stroke-width:0;stroke-dasharray:none"
       id="path3"
       sodipodi:type="arc"
       sodipodi:cx="4.2320166"
       sodipodi:cy="4.237854"
       sodipodi:rx="4.2086678"
       sodipodi:ry="4.2261791"
       sodipodi:start="6.1326786"
       sodipodi:end="6.1178507"
       sodipodi:open="true"
       sodipodi:arc-type="arc"
       d="M 8.3931063,3.6041844 A 4.2086678,4.2261791 0 0 1 4.8784812,8.4138794 4.2086678,4.2261791 0 0 1 0.07571968,4.9024844 4.2086678,4.2261791 0 0 1 3.5547374,0.06675609 4.2086678,4.2261791 0 0 1 8.3832921,3.5422994" />
    <path
       style="fill:#ffffff;stroke:#000000;stroke-width:0;stroke-dasharray:none"
       id="path4"
       sodipodi:type="arc"
       sodipodi:cx="4.243691"
       sodipodi:cy="4.2612028"
       sodipodi:rx="3.6132665"
       sodipodi:ry="3.7008252"
       sodipodi:start="6.1326786"
       sodipodi:end="6.1178507"
       sodipodi:open="true"
       sodipodi:arc-type="arc"
       d="M 7.8161103,3.7063043 A 3.6132665,3.7008252 0 0 1 4.7987001,7.9181089 3.6132665,3.7008252 0 0 1 0.67538645,4.8432134 3.6132665,3.7008252 0 0 1 3.6622266,0.60861169 3.6132665,3.7008252 0 0 1 7.8076845,3.6521122" />
    <path
       style="fill:#000000;stroke:#000000;stroke-width:0;stroke-dasharray:none"
       id="path5"
       sodipodi:type="arc"
       sodipodi:cx="4.2553654"
       sodipodi:cy="1.3367336"
       sodipodi:rx="0.11090802"
       sodipodi:ry="0.41444573"
       sodipodi:start="6.1326786"
       sodipodi:end="6.1178507"
       sodipodi:open="true"
       sodipodi:arc-type="arc"
       d="M 4.3650196,1.2745919 A 0.11090802,0.41444573 0 0 1 4.2724012,1.7462609 0.11090802,0.41444573 0 0 1 4.1458374,1.4019114 0.11090802,0.41444573 0 0 1 4.2375175,0.92768946 0.11090802,0.41444573 0 0 1 4.364761,1.2685231" />
    <path
       style="fill:#000000;stroke:#000000;stroke-width:0;stroke-dasharray:none"
       id="path6"
       sodipodi:type="arc"
       sodipodi:cx="4.2845521"
       sodipodi:cy="7.3783021"
       sodipodi:rx="0.11674528"
       sodipodi:ry="0.3735849"
       sodipodi:start="6.1326786"
       sodipodi:end="6.1178507"
       sodipodi:open="true"
       sodipodi:arc-type="arc"
       d="M 4.3999776,7.3222871 A 0.11674528,0.3735849 0 0 1 4.3024845,7.7474535 0.11674528,0.3735849 0 0 1 4.1692595,7.437054 0.11674528,0.3735849 0 0 1 4.2657649,7.0095863 0.11674528,0.3735849 0 0 1 4.3997054,7.3168166" />
    <path
       style="fill:#000000;stroke:#000000;stroke-width:0;stroke-dasharray:none"
       id="path7"
       sodipodi:type="arc"
       sodipodi:cx="1.6110849"
       sodipodi:cy="4.465507"
       sodipodi:rx="0.6304245"
       sodipodi:ry="0.20430425"
       sodipodi:start="6.1326786"
       sodipodi:end="6.1178507"
       sodipodi:open="true"
       sodipodi:arc-type="arc"
       d="M 2.2343826,4.4348738 A 0.6304245,0.20430425 0 0 1 1.7079201,4.6673867 0.6304245,0.20430425 0 0 1 0.98850517,4.497637 0.6304245,0.20430425 0 0 1 1.509634,4.2638655 0.6304245,0.20430425 0 0 1 2.2329126,4.4318822" />
    <path
       style="fill:#000000;stroke:#000000;stroke-width:0;stroke-dasharray:none"
       id="path8"
       sodipodi:type="arc"
       sodipodi:cx="6.8821344"
       sodipodi:cy="4.4596701"
       sodipodi:rx="0.64793628"
       sodipodi:ry="0.21014151"
       sodipodi:start="6.1326786"
       sodipodi:end="6.1178507"
       sodipodi:open="true"
       sodipodi:arc-type="arc"
       d="M 7.522746,4.4281616 A 0.64793628,0.21014151 0 0 1 6.9816595,4.6673177 0.64793628,0.21014151 0 0 1 6.2422608,4.492718 0.64793628,0.21014151 0 0 1 6.7778654,4.2522674 0.64793628,0.21014151 0 0 1 7.521235,4.4250845" />
    <path
       style="fill:#000000;stroke:#000000;stroke-width:0;stroke-dasharray:none"
       id="path9"
       sodipodi:type="arc"
       sodipodi:cx="2.4283018"
       sodipodi:cy="2.2648585"
       sodipodi:rx="0.15176886"
       sodipodi:ry="0.15176886"
       sodipodi:start="6.1326786"
       sodipodi:end="6.1178507"
       sodipodi:open="true"
       sodipodi:arc-type="arc"
       d="M 2.578355,2.2421024 A 0.15176886,0.15176886 0 0 1 2.451614,2.4148262 0.15176886,0.15176886 0 0 1 2.2784215,2.2887264 0.15176886,0.15176886 0 0 1 2.4038784,2.1150677 0.15176886,0.15176886 0 0 1 2.5780011,2.23988" />
    <path
       style="fill:#000000;stroke:#000000;stroke-width:0;stroke-dasharray:none"
       id="path10"
       sodipodi:type="arc"
       sodipodi:cx="5.9656839"
       sodipodi:cy="2.259021"
       sodipodi:rx="0.15176886"
       sodipodi:ry="0.12258254"
       sodipodi:start="6.1326786"
       sodipodi:end="6.1178507"
       sodipodi:open="true"
       sodipodi:arc-type="arc"
       d="M 6.1157371,2.2406411 A 0.15176886,0.12258254 0 0 1 5.9889961,2.3801488 0.15176886,0.12258254 0 0 1 5.8158036,2.278299 0.15176886,0.12258254 0 0 1 5.9412606,2.1380362 0.15176886,0.12258254 0 0 1 6.1153832,2.2388461" />
    <path
       style="fill:#000000;stroke:#000000;stroke-width:0;stroke-dasharray:none"
       id="path11"
       sodipodi:type="arc"
       sodipodi:cx="6.1174531"
       sodipodi:cy="6.3451061"
       sodipodi:rx="0.15176886"
       sodipodi:ry="0.16928065"
       sodipodi:start="6.1326786"
       sodipodi:end="6.1178507"
       sodipodi:open="true"
       sodipodi:arc-type="arc"
       d="M 6.2675062,6.3197243 A 0.15176886,0.16928065 0 0 1 6.1407653,6.5123779 0.15176886,0.16928065 0 0 1 5.9675728,6.3717281 0.15176886,0.16928065 0 0 1 6.0930297,6.1780318 0.15176886,0.16928065 0 0 1 6.2671523,6.3172455" />
    <path
       style="fill:#000000;stroke:#000000;stroke-width:0;stroke-dasharray:none"
       id="path12"
       sodipodi:type="arc"
       sodipodi:cx="2.5041862"
       sodipodi:cy="6.3334317"
       sodipodi:rx="0.20430425"
       sodipodi:ry="0.15760612"
       sodipodi:start="6.1326786"
       sodipodi:end="6.1178507"
       sodipodi:open="true"
       sodipodi:arc-type="arc"
       d="M 2.7061808,6.3098004 A 0.20430425,0.15760612 0 0 1 2.5355679,6.4891675 0.20430425,0.15760612 0 0 1 2.3024242,6.3582177 0.20430425,0.15760612 0 0 1 2.4713085,6.1778797 0.20430425,0.15760612 0 0 1 2.7057044,6.3074925" />
    <path
       style="fill:#000000;stroke:#000000;stroke-width:0;stroke-dasharray:none"
       id="path13"
       sodipodi:type="arc"
       sodipodi:cx="4.2612028"
       sodipodi:cy="4.4538326"
       sodipodi:rx="0.78219336"
       sodipodi:ry="0.78803062"
       sodipodi:start="6.1326786"
       sodipodi:end="6.1178507"
       sodipodi:open="true"
       sodipodi:arc-type="arc"
       d="M 5.0345537,4.335676 A 0.78219336,0.78803062 0 0 1 4.3813502,5.2325114 0.78219336,0.78803062 0 0 1 3.4887427,4.5777623 0.78219336,0.78803062 0 0 1 4.1353285,3.6760727 0.78219336,0.78803062 0 0 1 5.0327297,4.3241367" />
  </g>
</svg>
